<?xml version="1.0" encoding="UTF-8" standalone="no"?>
<svg
   xmlns:dc="http://purl.org/dc/elements/1.1/"
   xmlns:cc="http://creativecommons.org/ns#"
   xmlns:rdf="http://www.w3.org/1999/02/22-rdf-syntax-ns#"
   xmlns:svg="http://www.w3.org/2000/svg"
   xmlns="http://www.w3.org/2000/svg"
   viewBox="0 0 35 35"
   version="1.1"
   id="svg4"
   width="35"
   height="35">
  <metadata
     id="metadata10">
    <rdf:RDF>
      <cc:Work
         rdf:about="">
        <dc:format>image/svg+xml</dc:format>
        <dc:type
           rdf:resource="http://purl.org/dc/dcmitype/StillImage" />
        <dc:title></dc:title>
      </cc:Work>
    </rdf:RDF>
  </metadata>
  <defs
     id="defs8" />
  <path
     d="M 17.455834,0.77660503 A 5.7995396,5.7995396 0 0 0 11.635418,6.3595766 14.708261,14.708261 0 0 0 4.3933354,13.213932 1.4542476,1.4542476 0 0 0 5.0425533,15.173606 1.473153,1.473153 0 0 0 6.9947147,14.521384 11.779405,11.779405 0 0 1 12.289145,9.2600168 5.7995396,5.7995396 0 1 0 17.455834,0.77660503 Z m 9.355047,8.33312947 a 1.4561776,1.4561776 0 0 0 -1.042954,2.4751415 11.529275,11.529275 0 0 1 3.197997,6.658989 5.8693434,5.8693434 0 1 0 2.975579,0.781468 l -0.0031,-0.0059 A 14.415956,14.415956 0 0 0 27.849331,9.548558 1.4561776,1.4561776 0 0 0 26.810881,9.1097345 Z M 5.7022905,18.4753 a 5.6933795,5.6933795 0 1 0 1.2653735,11.266631 14.468309,14.468309 0 0 0 10.46112,4.481405 14.212363,14.212363 0 0 0 5.585977,-1.1196 A 1.4542476,1.4542476 0 1 0 21.87863,30.42872 11.364946,11.364946 0 0 1 17.428784,31.315383 11.57872,11.57872 0 0 1 9.6862625,28.336797 5.6933795,5.6933795 0 0 0 5.7022905,18.4753 Z"
     id="path2"
     style="stroke-width:1.45055" />
</svg>
