<?xml version="1.0" encoding="UTF-8" standalone="no"?>
<svg
   xmlns:dc="http://purl.org/dc/elements/1.1/"
   xmlns:cc="http://creativecommons.org/ns#"
   xmlns:rdf="http://www.w3.org/1999/02/22-rdf-syntax-ns#"
   xmlns:svg="http://www.w3.org/2000/svg"
   xmlns="http://www.w3.org/2000/svg"
   viewBox="0 0 35 35"
   version="1.1"
   id="svg4"
   width="35"
   height="35">
  <metadata
     id="metadata10">
    <rdf:RDF>
      <cc:Work
         rdf:about="">
        <dc:format>image/svg+xml</dc:format>
        <dc:type
           rdf:resource="http://purl.org/dc/dcmitype/StillImage" />
        <dc:title></dc:title>
      </cc:Work>
    </rdf:RDF>
  </metadata>
  <defs
     id="defs8" />
  <path
     d="m 18.158478,7.1033724 c 0,-1.0150662 0.183493,-1.9854522 0.505365,-2.89207 H 2.2527431 V 34.576519 H 25.388437 V 15.649012 C 21.29217,14.957119 18.158478,11.39311 18.158478,7.1033724 Z M 6.5906306,8.5491899 H 15.266409 V 11.441261 H 6.5906306 Z m 0,5.7837071 H 18.158478 v 2.892069 H 6.5906306 Z m 3.6147634,15.905735 c -1.9967303,0 -3.6147634,-1.618033 -3.6147634,-3.614762 0,-1.997164 1.6180331,-3.615197 3.6147634,-3.615197 1.995429,0 3.615197,1.618033 3.615197,3.615197 0,1.996729 -1.619768,3.614762 -3.615197,3.614762 z m 10.845155,0 h -2.892071 v -2.89207 h 2.892071 z m 0,-7.229959 h -5.78414 v -2.891636 h 5.78414 z M 26.528488,0.42348304 V 6.6405585 h 6.218769 V 6.4236631 c 0,-3.311305 -2.691903,-6.00280022 -6.001875,-6.00018006 z M 25.299984,1.8688816 c -3.309993,0 -6.000181,2.6905889 -6.000181,6.001875 0,3.3112864 2.690207,6.0001804 6.000181,6.0001804 3.309973,0 6.000181,-2.688894 6.000181,-6.0001804 V 7.6530144 H 25.516879 V 1.8688816 Z"
     id="path2"
     style="stroke-width:1.455" />
</svg>
