<?xml version="1.0" encoding="UTF-8" standalone="no"?>
<svg
   xmlns:dc="http://purl.org/dc/elements/1.1/"
   xmlns:cc="http://creativecommons.org/ns#"
   xmlns:rdf="http://www.w3.org/1999/02/22-rdf-syntax-ns#"
   xmlns:svg="http://www.w3.org/2000/svg"
   xmlns="http://www.w3.org/2000/svg"
   version="1.1"
   x="0px"
   y="0px"
   viewBox="0 0 35 35"
   xml:space="preserve"
   id="svg14"
   width="35"
   height="35"><metadata
     id="metadata20"><rdf:RDF><cc:Work
         rdf:about=""><dc:format>image/svg+xml</dc:format><dc:type
           rdf:resource="http://purl.org/dc/dcmitype/StillImage" /><dc:title></dc:title></cc:Work></rdf:RDF></metadata><defs
     id="defs18" /><g
     id="g8"
     style="fill:#000000;fill-opacity:1;stroke:none;stroke-opacity:1"><path
       id="path2"
       style="fill:#000000;fill-opacity:1;stroke:none;stroke-width:0.270112;stroke-opacity:1"
       d="m 30.598713,12.420234 -0.324135,0.135055 c -0.324135,-0.567235 -1.107462,-1.269528 -1.701709,-1.51263 -0.729303,-0.297123 -1.539641,-0.21609 -2.268945,0.108045 l -3.133305,1.323552 c -0.405168,0.162068 -0.675281,0.86436 -0.513213,1.269528 0.135055,0.297125 0.513213,0.756315 0.837348,0.756315 0.108045,0 0.21609,-0.02701 0.324135,-0.05402 l 3.133305,-1.323551 c 0.324135,-0.135057 0.702292,-0.135057 1.026427,0 0.21609,0.08104 0.378158,0.21609 0.513215,0.378158 l -6.347645,2.701125 c 0.08104,-1.215507 -0.567235,-2.701125 -1.75573,-3.21434 L 13.392546,9.9081873 C 10.421309,8.5846361 6.963869,8.8817598 4.370789,10.853581 l -1.2155062,1.053438 -0.081034,0.08104 -0.2431012,0.270112 c -0.1533255,0.170362 -0.4051688,0.486203 -0.4051688,0.702293 v 8.6436 H 1.0754165 c -0.45919125,0 -0.81033754,0.567235 -0.81033754,1.026427 0,0.459191 0.35114629,1.107461 0.81033754,1.107461 H 3.506429 c 0.4591913,0 1.1358312,-0.864363 1.1344725,-1.323551 l -0.04835,-8.935864 0.9127102,-0.842211 c 2.1338888,-1.620675 4.7809913,-2.079867 7.2390143,-0.999417 l 6.968903,3.133305 c 0.324135,0.135057 0.594247,0.405169 0.702292,0.756315 0.135057,0.324135 0.108045,0.702292 -0.02701,1.026427 -0.135057,0.324135 -0.40517,0.567237 -0.729305,0.702293 -0.324135,0.135057 -0.702292,0.108045 -1.026427,-0.02701 l -5.402252,-2.404004 c -0.405168,-0.189078 -0.891371,0.135057 -1.08045,0.540225 -0.189078,0.40517 0,1.05344 0.405169,1.242518 l 5.40225,2.404002 c 0.729303,0.324135 1.539641,0.324135 2.268945,0.02701 0.108045,-0.02701 0.21609,-0.08104 0.297123,-0.135055 0.05403,0 0.08104,-0.02701 0.108045,-0.02701 l 10.318298,-4.348814 c 0.324135,-0.135057 0.773294,-0.304374 1.097429,-0.169317 0.324135,0.135055 0.452244,0.334165 0.5873,0.6583 0.135057,0.324135 0.206058,0.64549 0.071,0.969625 -0.135056,0.324135 -0.63238,0.537444 -0.956515,0.6725 l -15.007133,6.296402 c -1.215505,0.513213 -2.62009,0.486203 -3.808585,-0.108045 L 6.6936756,19.902349 c -0.4051688,-0.189078 -1.0354553,0.124411 -1.2958373,0.780216 -0.2647664,0.666843 0.1883753,1.326662 0.5935441,1.515741 l 6.2396806,3.02526 c 0.86436,0.43218 1.782743,0.675281 2.728136,0.675281 0.810337,0 1.647687,-0.351146 2.431012,-0.675281 l 15.234345,-6.455689 c 0.729305,-0.297123 1.593665,-1.188495 1.890788,-1.917798 0.297124,-0.729305 0.297124,-1.809755 -0.02701,-2.539058 -0.297124,-0.729304 -0.918382,-1.566652 -1.647687,-1.863777 -0.702292,-0.297123 -1.51263,-0.324135 -2.241933,-0.02701 z" /></g></svg>
