<?xml version="1.0" encoding="UTF-8" standalone="no"?>
<svg
   viewBox="0 0 35 35"
   version="1.1"
   id="svg4"
   width="35"
   height="35"
   xmlns="http://www.w3.org/2000/svg"
   xmlns:svg="http://www.w3.org/2000/svg"
   xmlns:rdf="http://www.w3.org/1999/02/22-rdf-syntax-ns#"
   xmlns:cc="http://creativecommons.org/ns#"
   xmlns:dc="http://purl.org/dc/elements/1.1/">
  <metadata
     id="metadata10">
    <rdf:RDF>
      <cc:Work
         rdf:about="">
        <dc:format>image/svg+xml</dc:format>
        <dc:type
           rdf:resource="http://purl.org/dc/dcmitype/StillImage" />
      </cc:Work>
    </rdf:RDF>
  </metadata>
  <defs
     id="defs8" />
  <path
     id="rect875-0"
     style="color:#000000;fill:#000000;fill-rule:evenodd;stroke-width:1.01232;-inkscape-stroke:none"
     d="M 24.764968,24.41888 H 2.1329834 c -0.718819,0 -1.29750704,0.578688 -1.29750704,1.297506 v 1.262406 c 0,0.718819 0.57868804,1.297507 1.29750704,1.297507 H 24.764968 c 0.718819,0 1.297506,-0.578688 1.297506,-1.297507 v -1.262406 c 0,-0.718818 -0.578687,-1.297506 -1.297506,-1.297506 z m 8.15184,-8.836632 H 2.1329834 c -0.718819,0 -1.29750704,0.578688 -1.29750704,1.297506 v 1.262407 c 0,0.718818 0.57868804,1.297506 1.29750704,1.297506 H 32.916808 c 0.718819,0 1.297507,-0.578688 1.297507,-1.297506 v -1.262407 c 0,-0.718818 -0.578688,-1.297506 -1.297507,-1.297506 z m -8e-6,-8.8366311 H 2.1329754 c -0.718819,0 -1.29750704,0.5786879 -1.29750704,1.2975066 v 1.2624063 c 0,0.7188182 0.57868804,1.2975072 1.29750704,1.2975072 H 32.9168 c 0.718819,0 1.297507,-0.578689 1.297507,-1.2975072 V 8.0431235 c 0,-0.7188187 -0.578688,-1.2975066 -1.297507,-1.2975066 z" />
</svg>
