<?xml version="1.0" encoding="UTF-8" standalone="no"?>
<svg
   xmlns:dc="http://purl.org/dc/elements/1.1/"
   xmlns:cc="http://creativecommons.org/ns#"
   xmlns:rdf="http://www.w3.org/1999/02/22-rdf-syntax-ns#"
   xmlns:svg="http://www.w3.org/2000/svg"
   xmlns="http://www.w3.org/2000/svg"
   version="1.1"
   viewBox="0 0 35 35"
   id="svg4">
  <metadata
     id="metadata10">
    <rdf:RDF>
      <cc:Work
         rdf:about="">
        <dc:format>image/svg+xml</dc:format>
        <dc:type
           rdf:resource="http://purl.org/dc/dcmitype/StillImage" />
        <dc:title></dc:title>
      </cc:Work>
    </rdf:RDF>
  </metadata>
  <defs
     id="defs8" />
  <path
     d="m25.007 0.20615c-0.13908-0.011782-0.28099 0.008344-0.41344 0.063164h-0.0029c0.03729-0.015824-0.0566 0.022648-0.17514 0.063164-0.11853 0.040516-0.29516 0.097712-0.52541 0.16078-0.46051 0.12614-1.1379 0.28141-2.004 0.39047-1.7322 0.21811-4.2213 0.25933-7.2523-0.44789-0.26818-0.062634-0.5504 0.0028302-0.76371 0.18088-0.21246 0.1772-0.32993 0.44372-0.31582 0.72064v0.00287c0.0032 0.056478 0.12738 0.82958 0.52537 1.6308-0.7756 0.0083212-1.5606-0.0020766-2.1993-0.12632-0.76871-0.14955-1.347-0.42112-1.6021-0.76084-0.18585-0.2475-0.47948-0.35314-0.75223-0.33879h0.048809c0.091567 0.010172 0.077316 0.00285-0.031581-0.00861h-0.00287c-0.47686-0.046179-0.91607 0.30424-0.96469 0.78955-0.017958 0.18043-0.17001 2.7309 1.826 5.0359-0.86022 0.33119-1.5303 1.0731-1.5303 2.0471 0 0.85448 0.52974 1.5221 1.226 1.915-0.36842 0.34914-0.76289 0.72881-1.2202 1.2173h-0.00287c-0.33032 0.3531-0.30963 0.91524 0.043067 1.2461 0.16896 0.15846 0.38737 0.2383 0.60293 0.2383 0.23481 0 0.47072-0.09471 0.64312-0.2785 0.98222-1.0492 1.7858-1.7464 2.139-2.0442h8.7109c0.25256 0.21599 0.54159 0.38584 0.87281 0.45076 0.0122 0.01484-0.0096 0.0049 0.03446 0.03733 4.0813 2.9781 5.7632 6.2892 6.4255 8.932 0.65746 2.6234 0.3025 4.5775 0.24117 4.8751-1.3497 3.8193-4.489 5.5105-7.3529 6.2647-1.4341 0.37766-2.7945 0.5164-3.7985 0.55699-0.50195 0.0203-0.91296 0.0147-1.203 0.0058-0.29002-0.0089-0.49045-0.02585-0.46224-0.02298h-0.0058c0.01117 8.82e-4 -0.56579-0.04916-1.4097-0.22682-0.84391-0.17766-1.9784-0.48598-3.1582-1.0049-2.3596-1.0378-4.8765-2.8969-5.6905-6.259-0.53721-2.2235-0.048374-4.6967 1.4987-7.3845 0.24159-0.41928 0.096845-0.96427-0.32156-1.2059-0.4197-0.24183-0.96542-0.09502-1.2059 0.32443-1.7552 3.0489-2.3353 5.9817-1.6825 8.6822 0.96595 3.992 3.9218 6.2107 6.615 7.4132 1.3466 0.60124 2.6327 0.95314 3.5889 1.157 0.95546 0.20377 1.5589 0.25683 1.6136 0.26127 0.03022 0.0026 0.42169 0.03732 1.068 0.03732 1.4553 0 4.1905-0.16852 6.9021-1.2575 2.7101-1.0884 5.4045-3.1205 6.6868-6.8045v-0.0029c0.01367-0.03746 0.0228-0.0682 0.02871-0.09475v-0.0029c0.01058-0.04612 0.03121-0.1487 0.06316-0.37612 0.03205-0.22809 0.07053-0.55399 0.09187-0.96182 0.04269-0.81564 0.0234-1.9593-0.21246-3.3018-0.44205-2.5159-1.7256-5.7282-4.7287-8.7683l3.8645 0.52541-0.0029-0.0028c0.08642 0.01224 0.17116 0.01723 0.25266 0.01723 0.39959 0 0.78874-0.13173 1.1111-0.37611 0.38983-0.29655 0.64306-0.731 0.70916-1.2173h0.0029c0.13258-1.0023-0.5781-1.9341-1.579-2.0701l-1.3494-0.18375 0.61728-0.29572c0.44253-0.21041 0.78041-0.58385 0.94459-1.0451 0.16439-0.46181 0.139-0.96658-0.07179-1.4097h-0.0029c-0.43737-0.91249-1.5386-1.3017-2.4519-0.86707l-3.8214 1.8203c-0.15448-0.27895-0.3648-0.50043-0.63164-0.66896 2.7685-3.2328 2.7196-6.2335 2.7103-6.4169-0.015826-0.28487-0.16877-0.54548-0.41057-0.69768-0.12087-0.076598-0.25713-0.12029-0.39621-0.13207zm-1.1484 2.0729c-0.23523 1.1479-0.85592 2.9847-2.9228 4.9469-0.03031 0.028941-0.04007 0.058845-0.06316 0.089004h-1.0192c-0.048215-0.054848-0.11697-0.13601-0.19811-0.2383-0.16313-0.20565-0.37718-0.49905-0.58283-0.85271-0.41131-0.70732-0.77826-1.6447-0.67184-2.5782v-0.00287c0.03163-0.2777-0.0697-0.55285-0.27562-0.74361-0.20519-0.19059-0.49093-0.27509-0.76658-0.22108h-0.0029c-0.33285 0.064352-0.71574 0.12196-1.1111 0.17227-0.17038-0.097574-0.22719-0.2646-0.34166-0.40482 3.7411 0.60711 6.4398 0.2115 7.9558-0.16652zm-13.285 1.9638c2.0043 0.75501 4.6591 0.52418 6.124 0.31295 0.13179 1.1133 0.56183 2.0453 1.0135 2.7591h-5.1393c-0.036515-0.046252-0.055521-0.09733-0.10623-0.13781-1.2097-0.97274-1.6617-2.0496-1.892-2.9343zm17.743 3.652c0.03911-0.018622 0.08204-0.00432 0.10049 0.034453 0.0093 0.019545 0.01044 0.03622 0.0029 0.057422-0.0074 0.021168-0.01865 0.035724-0.04019 0.045937l-3.0519 1.4556-0.2785-0.037324zm-6.1556 0.99914c0.03202 0 0.09188 0.042654 0.09188 0.14643v1.4556c0 0.10377-0.05986 0.1493-0.09188 0.1493s-0.09187-0.04552-0.09187-0.1493v-1.4556c0-0.10377 0.05986-0.14643 0.09187-0.14643zm-10.993 0.18375h9.1358v1.0623h-9.1358c-0.29558 0-0.53115-0.23557-0.53115-0.53115 0-0.29558 0.23558-0.53115 0.53115-0.53115zm12.693 1.9925 5.7709 0.78094c0.04381 6e-3 0.07183 0.04288 0.06603 0.08613-0.0028 0.02125-0.01058 0.03509-0.02871 0.0488-0.01849 0.01349-0.03947 0.01702-0.0603 0.01437l0.0029 0.0028-5.8168-0.78955c0.02073-0.04941 0.04938-0.09211 0.06603-0.14356zm-15.788 2.9515c-0.22441 0.02429-0.44011 0.13455-0.59145 0.32156-0.15364 0.18996-0.30476 0.38576-0.4565 0.5857-0.2922 0.38493-0.2179 0.94202 0.16652 1.2346 0.15892 0.12117 0.34894 0.17801 0.53402 0.17801 0.26614 0 0.5312-0.12011 0.70342-0.3474 0.14098-0.18565 0.28316-0.36601 0.42492-0.54264v-0.0029c0.30312-0.37663 0.24447-0.93443-0.13207-1.2374-0.18855-0.15215-0.42393-0.21385-0.64887-0.18949zm9.3827 0.81252c-0.48395 0-0.88142 0.39813-0.88142 0.88142v1.4872c-1.147 0.2639-1.8483 0.97642-2.1677 1.6222-0.1997 0.40387-0.2983 0.79507-0.35027 1.0939-0.02599 0.14941-0.0416 0.27407-0.0488 0.3675-0.0061 0.07906-6e-3 0.11388-0.0058 0.15217v0.0029c-0.01038 0.15718-0.04914 1.1941 0.76945 2.0528 0.63129 0.66169 1.566 0.95854 2.6873 0.95607h0.0058c0.69226-0.01264 1.1347 0.1441 1.3839 0.39908 0.28958 0.29908 0.2877 0.71817 0.28711 0.72639v0.0029c-0.0019 0.02785-0.07927 0.7809-0.51392 1.1513-0.2457 0.20916-0.56718 0.29596-1.0738 0.2383-0.84634-0.09587-1.2137-0.38842-1.3982-0.64025-0.17989-0.24558-0.18942-0.47536-0.18949-0.50531v-0.0086c0.01602-0.47918-0.36082-0.88925-0.84123-0.91014h-0.0086c-0.46736-0.0062-0.89174 0.35195-0.91301 0.84123-0.01959 0.44261 0.10774 1.0362 0.50531 1.5935 0.36192 0.50725 0.99095 0.94475 1.8691 1.1944l0.0029 1.3322c8.82e-4 0.483 0.39813 0.87856 0.88142 0.87856 0.4843 0 0.8823-0.39784 0.88143-0.88143v-1.1915c0.53243-0.08043 1.0263-0.256 1.4269-0.59719 1.067-0.90843 1.1298-2.3084 1.1341-2.3945 0.01044-0.15864 0.04698-1.1877-0.76658-2.0413-0.62798-0.65826-1.5514-0.9643-2.6931-0.9532h-0.0029c-0.67058 0.01147-1.1379-0.14693-1.3839-0.39908-0.29494-0.3029-0.29111-0.74591-0.28998-0.78094l0.0029-0.0057v-0.0029c0-0.0047 0.0092-0.45566 0.22394-0.89004 0.27355-0.55318 0.68064-0.78955 1.4269-0.78955 0.62298 0 1.0367 0.16454 1.3006 0.4565 0.47798 0.52884 0.42506 1.5312 0.42492 1.536-0.05169 0.48009 0.30074 0.92072 0.78094 0.9733 0.48379 0.05262 0.92037-0.3046 0.9733-0.78094 0.0098-0.09147 0.19651-1.7221-0.86133-2.9027-0.43426-0.48507-1.0261-0.76726-1.6968-0.91301v-1.4671c0-0.48359-0.39748-0.8843-0.88143-0.8843z"
     stroke-width="1.47"
     id="path2" />
</svg>
