<?xml version="1.0" encoding="UTF-8" standalone="no"?>
<svg
   xmlns:dc="http://purl.org/dc/elements/1.1/"
   xmlns:cc="http://creativecommons.org/ns#"
   xmlns:rdf="http://www.w3.org/1999/02/22-rdf-syntax-ns#"
   xmlns:svg="http://www.w3.org/2000/svg"
   xmlns="http://www.w3.org/2000/svg"
   viewBox="0 0 35 35"
   version="1.1"
   id="svg4"
   width="35"
   height="35">
  <metadata
     id="metadata10">
    <rdf:RDF>
      <cc:Work
         rdf:about="">
        <dc:format>image/svg+xml</dc:format>
        <dc:type
           rdf:resource="http://purl.org/dc/dcmitype/StillImage" />
        <dc:title></dc:title>
      </cc:Work>
    </rdf:RDF>
  </metadata>
  <defs
     id="defs8" />
  <path
     d="m 16.228099,3.3637521 -0.953005,0.6524435 4.222557,6.1798854 0.952516,-0.649998 z m 2.932334,0.0953 -3.614099,6.1236844 1.077633,0.6353385 3.613608,-6.121241 z M 11.845192,0.11130871 V 0.71732396 13.565819 H 23.88462 V 0.11130871 Z m 1.209587,1.21202979 h 9.617813 V 12.356233 H 13.054779 Z M 6.0333663,7.3199547 3.7119374,17.033295 H 31.288063 L 30.063815,7.3199547 h -3.787443 v 2.1283824 h 1.910751 L 28.87622,14.907361 H 6.4072374 L 7.7121253,9.4483371 H 9.5104679 V 7.3199547 Z M 4.8660147,17.74824 4.8659465,34.888691 h 1.001322 23.7710075 l 6.7e-5,-17.140451 z m 1.6267487,1.626032 H 28.011182 V 33.136681 H 6.4927634 Z m 14.7932416,4.249128 -1.309738,-0.0028 -0.0019,0.0019 -0.0035,-6e-6 -0.0053,0.0019 -1.301101,-0.0041 c -0.328742,-6.48e-4 -0.596647,0.266203 -0.597295,0.594948 -3.23e-4,0.164389 0.0661,0.312215 0.173698,0.420218 0.107576,0.108014 0.255194,0.175034 0.41953,0.175347 l 0.715346,0.0013 -0.0069,3.490336 c -3.23e-4,0.164427 0.06784,0.313949 0.175413,0.421954 0.107546,0.107984 0.255157,0.175054 0.419533,0.175345 0.328748,6.45e-4 0.596605,-0.266165 0.597297,-0.594948 l 0.0069,-3.490327 0.715347,0.0013 c 0.328743,6.46e-4 0.59665,-0.266199 0.597298,-0.594942 6.47e-4,-0.328748 -0.266203,-0.596651 -0.594948,-0.597299 z m -1.16e-4,0.05876 c 0.298073,5.91e-4 0.538627,0.242093 0.538038,0.540165 -5.84e-4,0.29807 -0.242092,0.538627 -0.540163,0.53804 l -0.772365,-0.0034 0.0019,0.02939 -0.0069,3.517984 c -6.27e-4,0.298109 -0.242094,0.53862 -0.540164,0.538035 -0.149015,-2.66e-4 -0.284162,-0.06024 -0.381552,-0.157984 -0.09741,-0.09778 -0.156783,-0.233095 -0.156496,-0.382173 l 0.0053,-3.547358 -0.770641,-0.0015 c -0.148998,-2.95e-4 -0.284165,-0.06024 -0.38155,-0.157987 -0.0974,-0.09777 -0.156765,-0.233097 -0.156481,-0.382174 5.86e-4,-0.298069 0.242091,-0.538626 0.54016,-0.538038 l 1.309744,0.0029 z m -0.745436,1.103997 0.743431,0.0015 c 0.313408,6.16e-4 0.568005,-0.25298 0.568626,-0.56639 6.15e-4,-0.313405 -0.252982,-0.568001 -0.566388,-0.568622 l -1.310776,-0.0029 h -1.58e-4 c 0,0 -1.22e-4,3.9e-5 -2.04e-4,3.9e-5 l -1.310772,-0.0029 c -0.313407,-6.13e-4 -0.568008,0.25298 -0.568626,0.566387 -3.09e-4,0.156734 0.06294,0.298727 0.165419,0.40162 0.102491,0.102898 0.244293,0.166709 0.400963,0.167005 l 0.743389,0.0013 -0.0069,3.518596 c -3.07e-4,0.156734 0.06294,0.298724 0.165418,0.401619 0.10249,0.102898 0.244263,0.166727 0.400963,0.167004 0.313406,6.15e-4 0.568001,-0.252983 0.568663,-0.566428 z m 4.564189,-1.155215 -1.302832,-0.0029 c -0.713594,-0.0014 -1.296985,0.579729 -1.298472,1.29336 l -0.0053,2.688597 c -6.39e-4,0.345611 0.134421,0.671672 0.37833,0.91653 0.243857,0.244819 0.567736,0.379524 0.913303,0.380212 l 1.306287,0.0029 c 0.328747,6.47e-4 0.596609,-0.26617 0.597299,-0.594951 6.89e-4,-0.328709 -0.266167,-0.596604 -0.594947,-0.597292 l -1.306287,-0.0026 c -0.05699,-6.1e-5 -0.101827,-0.04508 -0.101756,-0.102146 l 0.0015,-0.749903 0.834568,0.0034 c 0.328745,6.48e-4 0.596608,-0.266165 0.597297,-0.594944 6.49e-4,-0.328747 -0.266165,-0.596612 -0.594949,-0.597297 l -0.834565,-0.0034 0.0015,-0.746451 c 1.15e-4,-0.05699 0.04688,-0.103578 0.10388,-0.103504 l 1.302829,0.0029 c 0.328696,6.52e-4 0.596642,-0.266158 0.597248,-0.594943 6.05e-4,-0.328777 -0.266202,-0.59665 -0.594946,-0.597298 z m 0.0019,0.05702 c 0.29807,5.89e-4 0.538584,0.242043 0.538036,0.540163 -5.52e-4,0.298112 -0.242091,0.538628 -0.540164,0.538041 l -1.306282,-0.0026 c -0.08779,-1.63e-4 -0.159093,0.07089 -0.159284,0.158638 l -0.0019,0.805195 0.891591,0.0019 c 0.298115,6.26e-4 0.538624,0.242097 0.538036,0.540166 -6.25e-4,0.298115 -0.242092,0.538627 -0.540163,0.538038 l -0.891591,-0.0019 -0.0019,0.805195 c -1.22e-4,0.0878 0.07257,0.160939 0.160365,0.161026 l 1.302824,0.0029 c 0.298119,6.27e-4 0.538666,0.242139 0.538039,0.540168 -6.25e-4,0.298114 -0.242094,0.538625 -0.540161,0.538039 l -1.302829,-0.0029 c -0.330823,-6.59e-4 -0.641857,-0.128462 -0.875315,-0.362856 -0.233498,-0.234422 -0.361738,-0.547597 -0.361124,-0.878481 l 0.0053,-2.688596 c 0.0013,-0.682863 0.556788,-1.236039 1.239605,-1.234731 z m -0.0089,4.058195 -1.304434,-0.0029 c -0.07239,-7.3e-5 -0.131116,-0.05911 -0.131041,-0.131524 l 0.0015,-0.776737 0.862611,0.0019 c 0.31341,6.17e-4 0.568004,-0.252979 0.568664,-0.566428 6.19e-4,-0.313407 -0.25298,-0.568007 -0.566426,-0.568663 l -0.862616,-0.0019 0.0015,-0.77674 c 1.43e-4,-0.07238 0.05916,-0.131178 0.131526,-0.131027 l 1.304473,0.0029 c 0.313409,6.19e-4 0.568043,-0.252937 0.568624,-0.566382 5.76e-4,-0.313452 -0.25298,-0.568006 -0.566388,-0.568625 l -1.304513,-0.0026 c -0.698206,-0.0013 -1.267312,0.565531 -1.268768,1.263774 l -0.0053,2.688567 c -6.27e-4,0.338248 0.130484,0.656489 0.369147,0.89613 0.238658,0.239602 0.556426,0.371965 0.894629,0.372636 l 1.304434,0.0029 c 0.313467,6.2e-4 0.568069,-0.252976 0.568722,-0.566423 6.61e-4,-0.313371 -0.252935,-0.567968 -0.566386,-0.568623 z M 16.868564,24.2091 c -0.366162,-0.367622 -0.871051,-0.596075 -1.429518,-0.597213 -1.116892,-0.0022 -2.028568,0.905925 -2.030809,2.022816 l -0.0025,1.226801 c -0.0011,0.558429 0.225444,1.064289 0.591576,1.431864 0.36609,0.367538 0.871094,0.596115 1.429521,0.597212 1.116891,0.0022 2.028563,-0.905923 2.03081,-2.022815 l 0.0041,-1.22507 c 0.0011,-0.558398 -0.227092,-1.065968 -0.593255,-1.433588 z m -0.0398,0.03965 c 0.355848,0.357267 0.575425,0.850802 0.574372,1.393817 l -0.0025,1.226803 c -0.0022,1.086119 -0.885761,1.966288 -1.971875,1.964188 -0.543187,-0.0011 -1.035762,-0.222539 -1.391692,-0.579874 -0.355971,-0.357376 -0.575443,-0.850781 -0.57437,-1.393814 l 6.89e-4,-1.225067 c 0.0023,-1.086112 0.887563,-1.968013 1.973679,-1.965907 0.543074,0.0011 1.035697,0.222595 1.391537,0.579858 z m -0.763607,0.760499 c -0.160991,-0.161635 -0.384673,-0.261664 -0.630163,-0.262152 -0.491081,-9.67e-4 -0.892424,0.398789 -0.893352,0.889832 l -6.86e-4,1.225074 c -9.7e-4,0.491005 0.398788,0.892428 0.889834,0.893351 0.491039,9.8e-4 0.89065,-0.397027 0.891615,-0.888108 l 0.0025,-1.2268 c 4.89e-4,-0.245502 -0.09868,-0.469565 -0.259665,-0.631194 z m -0.04154,0.04141 c 0.150824,0.151427 0.246382,0.359581 0.245926,0.589699 l -0.0041,1.22507 c -9.09e-4,0.460303 -0.375957,0.833871 -0.836217,0.832923 -0.460253,-8.64e-4 -0.832106,-0.374265 -0.8312,-0.834479 l 0.0025,-1.226803 c 8.72e-4,-0.460259 0.375913,-0.833833 0.836216,-0.832927 0.230113,4.53e-4 0.436165,0.09509 0.586999,0.24652 z m 1.408163,0.591998 c 0.0022,-1.101425 -0.892186,-1.999355 -1.993725,-2.001605 -1.101505,-0.0022 -1.999392,0.892223 -2.001604,1.993726 l -0.0025,1.225779 c -0.0011,0.550734 0.221975,1.05058 0.583023,1.413058 0.36101,0.362438 0.859974,0.587461 1.410706,0.588546 1.101501,0.0022 1.99939,-0.892221 2.0016,-1.993726 z m -2.001776,2.084488 c -0.47565,-9.1e-4 -0.86185,-0.388715 -0.860916,-0.864324 l 0.0025,-1.225786 c 8.96e-4,-0.475649 0.388625,-0.861849 0.864314,-0.860911 0.237805,4.7e-4 0.453265,0.09761 0.609181,0.254136 0.155926,0.156529 0.252206,0.372372 0.251733,0.610179 l -0.0025,1.22578 c -9.34e-4,0.475692 -0.388664,0.861895 -0.864311,0.860917 z m -2.970102,-4.086573 c -0.310128,-0.109253 -0.651779,0.05474 -0.760988,0.364811 L 10.82663,26.481467 9.9641133,24.001963 c -0.1080286,-0.310564 -0.449104,-0.475805 -0.759548,-0.367811 -0.3105206,0.108001 -0.4741131,0.44734 -0.3660807,0.757824 l 1.4209064,4.089273 c 0.03005,0.08643 0.07948,0.162877 0.141243,0.224902 0.109176,0.109598 0.261391,0.174991 0.422989,0.17535 0.253131,4.95e-4 0.478317,-0.159285 0.562354,-0.398037 l 1.437016,-4.083639 c 0.109251,-0.310138 -0.05312,-0.650086 -0.363088,-0.75926 z m -0.01913,0.05351 c 0.281043,0.09899 0.427731,0.405432 0.328679,0.686623 l -1.43702,4.083652 c -0.07608,0.216178 -0.281223,0.360569 -0.510445,0.36012 -0.146343,-3.26e-4 -0.282783,-0.05886 -0.381552,-0.158002 -0.0559,-0.05611 -0.100243,-0.125895 -0.127451,-0.204143 L 8.8921294,24.373068 c -0.097954,-0.281506 0.049829,-0.587406 0.3313806,-0.685321 0.2814744,-0.09792 0.5890975,0.05147 0.6870457,0.333111 l 0.9157763,2.633387 0.927884,-2.631481 c 0.09902,-0.281163 0.405416,-0.427729 0.686623,-0.328672 z m 0.355974,0.696806 c 0.104152,-0.295652 -0.05123,-0.619721 -0.34673,-0.723795 -0.295672,-0.104166 -0.619695,0.05109 -0.723812,0.346729 L 10.8267,26.567724 9.9373027,24.010339 C 9.8343137,23.714257 9.5108249,23.5578 9.2148641,23.660756 8.9188269,23.763716 8.7622482,24.087155 8.8652398,24.383152 l 1.4220222,4.088882 c 0.02864,0.08235 0.07497,0.154896 0.133803,0.213956 0.103971,0.104378 0.247108,0.166778 0.401082,0.167126 0.241174,4.75e-4 0.456325,-0.151505 0.536389,-0.378969 z"
     id="path2"
     style="stroke-width:1.509" />
</svg>
