<?xml version="1.0" encoding="UTF-8" standalone="no"?>
<svg
   xmlns:dc="http://purl.org/dc/elements/1.1/"
   xmlns:cc="http://creativecommons.org/ns#"
   xmlns:rdf="http://www.w3.org/1999/02/22-rdf-syntax-ns#"
   xmlns:svg="http://www.w3.org/2000/svg"
   xmlns="http://www.w3.org/2000/svg"
   viewBox="0 0 35 35"
   version="1.1"
   id="svg4"
   width="35"
   height="35">
  <metadata
     id="metadata10">
    <rdf:RDF>
      <cc:Work
         rdf:about="">
        <dc:format>image/svg+xml</dc:format>
        <dc:type
           rdf:resource="http://purl.org/dc/dcmitype/StillImage" />
        <dc:title></dc:title>
      </cc:Work>
    </rdf:RDF>
  </metadata>
  <defs
     id="defs8" />
  <path
     d="m 10.658815,17.953447 v 0.336165 1.931069 H 24.96192 v -2.267234 z m 10.327037,5.178982 c -1.30978,1.309818 -2.619616,2.626421 -3.929396,3.936199 -0.397636,0.397609 -0.795256,0.788456 -1.192891,1.186087 -0.680835,-0.680821 -1.361701,-1.361673 -2.042506,-2.042506 -0.316116,-0.316075 -0.843629,-0.316075 -1.159741,0 -0.316112,0.316112 -0.316112,1.142168 0,1.458278 0.874088,0.874089 1.748213,1.748252 2.622303,2.622378 0.316111,0.316074 0.843628,0.316074 1.15974,0 1.309781,-1.309816 2.619615,-2.619689 3.929395,-3.929468 0.590926,-0.590889 1.352726,-1.375483 1.943689,-1.966408 0.264796,-0.316112 0.202121,-0.971238 -0.05128,-1.18479 -0.171672,-0.211557 -0.464359,-0.307463 -0.662882,-0.316091 -0.449036,0.01772 -0.616432,0.236321 -0.616431,0.236321 z M 10.512954,12.915543 v 0.336164 1.930729 H 24.96192 V 12.915543 Z M 17.5,0.31880885 c -1.900064,0 -3.429531,1.44314395 -3.666836,3.27961885 l -0.966066,6.153e-4 c -1.019439,6.493e-4 -1.853161,0.5339301 -1.853161,1.5526627 v 0.047382 H 7.3918501 c -1.0194404,0 -1.853161,0.8344282 -1.8531609,1.8531609 V 32.828031 c 0,1.018732 0.8337205,1.85316 1.8531609,1.85316 H 27.608151 c 1.018386,0 1.85316,-0.834065 1.85316,-1.85316 V 7.0522485 c 0,-1.0189137 -0.834248,-1.8531608 -1.85316,-1.8531608 h -3.623403 v -0.047381 c 0,-0.9607621 -0.741535,-1.4650871 -1.681053,-1.5526633 -0.05668,-0.00528 -0.984334,0 -1.042345,0 C 21.132102,2.2120026 19.646552,0.35151338 17.5,0.31880885 Z M 7.3918501,6.8837793 11.013937,6.8844175 v 0.9999281 c 0,1.0187323 0.833721,1.853161 1.853161,1.853161 h 9.264488 c 1.019441,0 1.853162,-0.8344287 1.853162,-1.853161 l 0.02295,-0.9999281 3.600458,-6.385e-4 c 0.09444,0 0.168468,0.072875 0.168468,0.1684691 V 32.828031 c 0,0.0956 -0.07403,0.16847 -0.168468,0.16847 H 7.3918501 c -0.096681,0 -0.1684694,-0.07179 -0.1684692,-0.16847 V 7.0522485 c 0,-0.096681 0.07179,-0.1684692 0.1684692,-0.1684692 z"
     id="path2"
     style="stroke-width:1.45861" />
</svg>
